<?xml version="1.0" ?><svg viewBox="0 0 64 64" xmlns="http://www.w3.org/2000/svg"><defs><style>.cls-1{fill:#dbeffc;}.cls-2{fill:none;}.cls-2,.cls-4,.cls-5,.cls-6,.cls-7,.cls-8,.cls-9{stroke:#4c241d;stroke-linecap:round;stroke-linejoin:round;stroke-width:2px;}.cls-3{fill:#4c241d;}.cls-4{fill:#b5a19c;}.cls-5{fill:#c1dbdc;}.cls-6{fill:#9dc1e4;}.cls-7{fill:#fff;}.cls-8{fill:#6b4f5b;}.cls-9{fill:#a9ba5a;}</style></defs><g id="free-shipping"><circle class="cls-1" cx="31.5" cy="28.5" r="21.5"/><circle class="cls-2" cx="53" cy="17" r="2"/><circle class="cls-3" cx="45.5" cy="23.5" r="1.0691"/><circle class="cls-3" cx="16.5" cy="14.5" r="1.0691"/><rect class="cls-4" height="4" width="58" x="3" y="50"/><rect class="cls-5" height="26" width="36" x="3" y="24"/><polygon class="cls-6" points="49.476 31 39 31 39 40 54 40 49.476 31"/><polygon class="cls-7" points="54 40 39 40 39 50 61 50 61 43.485 54 40"/><line class="cls-2" x1="43" x2="45" y1="44" y2="44"/><circle class="cls-8" cx="49.0802" cy="54.75" r="4.75"/><circle class="cls-8" cx="15.7406" cy="54.75" r="4.75"/><polyline class="cls-2" points="26 37 23 37 23 43 26 43"/><line class="cls-2" x1="26" x2="23" y1="40" y2="40"/><polyline class="cls-2" points="32 37 29 37 29 43 32 43"/><line class="cls-2" x1="32" x2="29" y1="40" y2="40"/><polyline class="cls-2" points="13 37 10 37 10 43"/><line class="cls-2" x1="13" x2="10" y1="40" y2="40"/><path class="cls-2" d="M16,43V37h2.6439A1.3562,1.3562,0,0,1,20,38.3561v.2878A1.3562,1.3562,0,0,1,18.6439,40H17l3,3"/><path class="cls-9" d="M31.5561,22.7505,27.623,17.8342a2.0742,2.0742,0,0,0-2.598-.5845,2.001,2.001,0,0,0-.5919,3l1.4,1.75H12.9946a2,2,0,0,0-2,2h0a2,2,0,0,0,2,2H25.8335l-1.317,1.6462a2.1129,2.1129,0,0,0,.2609,2.9407,2,2,0,0,0,2.7787-.3374l4-5A2,2,0,0,0,31.5561,22.7505Z"/><line class="cls-2" x1="33" x2="30" y1="7" y2="10"/><line class="cls-2" x1="30" x2="33" y1="7" y2="10"/></g></svg>